<svg width="24" height="25" viewBox="0 0 24 25" fill="none" xmlns="http://www.w3.org/2000/svg">
<g id="Group 35537">
<path id="Vector" d="M23.6169 13.2261C23.6169 12.2354 23.5365 11.5124 23.3625 10.7627H12.0494V15.2343H18.69C18.5561 16.3456 17.8332 18.0191 16.2265 19.1437L16.204 19.2934L19.781 22.0644L20.0288 22.0892C22.3048 19.9872 23.6169 16.8945 23.6169 13.2261" fill="#4285F4"/>
<path id="Vector_2" d="M12.0496 25.0076C15.3029 25.0076 18.0341 23.9365 20.029 22.089L16.2267 19.1435C15.2092 19.8531 13.8436 20.3484 12.0496 20.3484C8.86321 20.3484 6.1588 18.2466 5.19475 15.3413L5.05345 15.3533L1.33404 18.2318L1.2854 18.367C3.26684 22.3031 7.33688 25.0076 12.0496 25.0076Z" fill="#34A853"/>
<path id="Vector_3" d="M5.19447 15.3414C4.9401 14.5916 4.79289 13.7883 4.79289 12.9582C4.79289 12.1281 4.9401 11.3249 5.18109 10.5751L5.17435 10.4154L1.40834 7.49072L1.28512 7.54933C0.468472 9.18272 -0.00012207 11.0169 -0.00012207 12.9582C-0.00012207 14.8995 0.468472 16.7337 1.28512 18.3671L5.19447 15.3414" fill="#FBBC05"/>
<path id="Vector_4" d="M12.0496 5.56778C14.3122 5.56778 15.8384 6.54511 16.7087 7.36185L20.1093 4.04154C18.0208 2.10025 15.3029 0.908691 12.0496 0.908691C7.33688 0.908691 3.26684 3.6131 1.2854 7.54922L5.18137 10.575C6.1588 7.66976 8.86321 5.56778 12.0496 5.56778" fill="#EB4335"/>
</g>
</svg>
