<svg width="28" height="27" viewBox="0 0 28 27" fill="none" xmlns="http://www.w3.org/2000/svg">
<g id="Social Icons" clip-path="url(#clip0_3404_248)">
<path id="Vector" d="M14 27C21.732 27 28 20.9558 28 13.5C28 6.04416 21.732 0 14 0C6.26801 0 0 6.04416 0 13.5C0 20.9558 6.26801 27 14 27Z" fill="url(#paint0_linear_3404_248)"/>
<path id="Vector_2" fill-rule="evenodd" clip-rule="evenodd" d="M6.33719 13.3574C10.4185 11.6428 13.14 10.5124 14.5017 9.96625C18.3896 8.40687 19.1975 8.13599 19.7241 8.12705C19.8399 8.12508 20.0988 8.15276 20.2666 8.284C20.4082 8.39483 20.4472 8.54453 20.4658 8.6496C20.4845 8.75467 20.5077 8.99403 20.4892 9.18105C20.2785 11.3157 19.3669 16.496 18.9031 18.8869C18.7069 19.8985 18.3204 20.2377 17.9463 20.2709C17.1333 20.3431 16.516 19.7528 15.7285 19.2551C14.4963 18.4762 13.8002 17.9914 12.6042 17.2313C11.222 16.353 12.118 15.8702 12.9057 15.0813C13.1119 14.8748 16.694 11.733 16.7633 11.448C16.772 11.4123 16.7801 11.2794 16.6982 11.2093C16.6163 11.1391 16.4955 11.1631 16.4083 11.1822C16.2848 11.2092 14.3163 12.4638 10.5031 14.946C9.94433 15.3159 9.43825 15.4962 8.98482 15.4867C8.48494 15.4763 7.52339 15.2142 6.80857 14.9901C5.93182 14.7153 5.235 14.57 5.29568 14.1033C5.32728 13.8602 5.67445 13.6116 6.33719 13.3574Z" fill="white"/>
</g>
<defs>
<linearGradient id="paint0_linear_3404_248" x1="14" y1="0" x2="14" y2="26.7998" gradientUnits="userSpaceOnUse">
<stop stop-color="#2AABEE"/>
<stop offset="1" stop-color="#229ED9"/>
</linearGradient>
<clipPath id="clip0_3404_248">
<rect width="28" height="27" fill="white"/>
</clipPath>
</defs>
</svg>
